<svg xmlns="http://www.w3.org/2000/svg" viewBox="-100 -100 500 500"><path style="fill:#000000" fill-rule="evenodd" d="M 324.9991126158001 212.50070594083337 L 193.74922982870004 212.50070594083337 L 287.50034039066674 25.00057481646667 L 324.9991126158001 25.00057481646667 M 162.49955630790004 25.00057481646667 L 162.49955630790004 50.00114963293334 L 249.9994781659667 50.00114963293334 L 168.74865501223337 212.50070594083337 L 193.74922982870004 212.50070594083337 L 149.9992688996667 300.00062779890004 L 0 0 L 300.00062779890004 0 L 287.50034039066674 25.00057481646667 M 162.49955630790004 212.50070594083337 L 162.49955630790004 174.99984371613337 L 200.00041853260004 100.00020926630002 L 162.49955630790004 100.00020926630002 L 162.49955630790004 49.99905963336668 L 137.49898149143337 49.99905963336668 L 137.49898149143337 25.00057481646667 L 25.00057481646667 25.00057481646667 L 49.99905963336668 49.99905963336668 L 149.9992688996667 249.9994781659667 L 168.75074501180003 212.50070594083337 M 162.49955630790004 174.99984371613337 L 149.9992688996667 200.00041853260004 L 100.00020926630002 100.00020926630002 L 137.49898149143337 137.49898149143337 L 137.49898149143337 100.00020926630002 L 162.49955630790004 100.00020926630002 M 100.00020926630002 100.00020926630002 L 50.00114963293334 50.00114963293334 L 137.49898149143337 50.00114963293334 L 137.49898149143337 100.00020926630002"/></svg>
