<svg xmlns="http://www.w3.org/2000/svg" viewBox="-100 -100 500 500"><path style="fill:#000000" fill-rule="evenodd" d="M 199.99889849040008 100.00045258080004 L 149.99867220000004 199.99889849040008 L 100.00045258080004 100.00045258080004 M 135.71518659840004 50.00022629040002 L 150.00067887120005 29.99973444000001 L 164.28617114400006 50.00022629040002 M 250.0011314520001 50.00022629040002 L 214.7057917152001 120.58889909280005 L 229.41268494000008 141.17734560480005 L 300.0013577424001 0 L 0 0 L 70.58867280240003 141.17734560480005 L 0 239.9998821912001 L 120.00094443120004 239.9998821912001 L 150.00067887120005 300.0013577424001 L 180.00041331120008 239.9998821912001 L 299.9993510712001 239.9998821912001 L 229.4106782688001 141.17533893360005 L 180.00041331120008 239.9998821912001 L 155.00130350160006 239.9998821912001 L 150.00067887120005 250.0011314520001 L 145.00005424080004 239.9998821912001 L 154.99929683040006 239.9998821912001 L 214.7057917152001 120.58689242160004 L 164.28617114400006 50.00022629040002 M 145.00005424080004 239.9998821912001 L 120.00094443120004 239.9998821912001 L 70.58867280240003 141.17734560480005 L 85.29355935600003 120.58889909280005 L 50.00022629040002 50.00022629040002 L 135.71518659840004 50.00022629040002 L 85.29556602720002 120.58689242160004"/></svg>
